<svg xmlns="http://www.w3.org/2000/svg" viewBox="0 0 188 49">
  <g fill="#FFF" fill-rule="evenodd">
    <path d="M79.745 41.198l-1.614-1.616c.76-1.05 1.207-2.34 1.207-3.734 0-2.954-2.006-5.437-4.727-6.16-.226-.913-.454-1.874-.592-2.467 4.287.496 7.626 4.152 7.626 8.578 0 2.043-.71 3.92-1.9 5.4m-6.72 3.234c-2.923 0-5.51-1.465-7.07-3.7l1.97-1.005c1.163 1.518 2.994 2.495 5.05 2.495 1.392 0 2.68-.447 3.727-1.208l1.603 1.605c-1.46 1.136-3.29 1.812-5.28 1.812m-8.618-8.634c0-.322.018-.642.052-.955l1.047.3c.33.092.72.497.5.762l-.175.107c-.21.128-.385.31-.476.537-.105.26-.09.522.044.802.202.42.772.574 1.24.42l.247-.064c.024.08.05.16.077.24l-1.964 1c-.383-.975-.593-2.04-.593-3.15m-43.668 5.58l-2.88-2.885c.24-.285.448-.597.62-.93l4.674-2.11c-.064 2.28-.967 4.357-2.413 5.925m-6.7 2.944c-2.952 0-5.582-1.414-7.25-3.6l3.664-1.87c.91.895 2.16 1.448 3.538 1.448.816 0 1.587-.194 2.27-.542l2.948 2.952c-1.47 1.018-3.25 1.612-5.168 1.612m-9.116-9.13c0-2.678 1.155-5.088 2.99-6.76l2.708 3.04c-1.032.927-1.683 2.272-1.683 3.77 0 .68.134 1.33.378 1.92l-3.57 1.82c-.528-1.157-.823-2.44-.823-3.79m77.237-8.98c.235.116.484-.133.37-.37-.122-.267-.397-.61-.97-1.02-1.05-.752-4.445-2.227-7.956-2.514.9-.743 1.883-1.54 2.473-2.015.337-.272.78-.373 1.2-.276l1.34.31c.334.077.653-.176.657-.522.012-1.06-.15-3.232-1.452-5.405-1.818-3.035-7.777-8.397-7.777-8.397s.602-.752-.142-1.477l.32-.322c.6-.6.416-1.61-.354-1.96l-2.07-.94c-.432-.2-.943-.005-1.137.432l-.457 1.03-1.973-1.672c-.368-.313-.915-.29-1.257.05l-1.054 1.057c-.592.594-.8 1.474-.535 2.27l1.284 3.86-3.938 3.946-.214-.322c-.388-.583-.953-1.024-1.612-1.256-2.814-.994-10.652-3.683-13.122-3.683-2.43 0-5.903 3.126-7.18 4.362-.32.308-.497.73-.497 1.174v.66c0 .308-.123.606-.34.824-.326.326-.668.46-1.015.443-7.03-.332-11.725-1.54-13.797-2.19-.752-.234-1.358-.796-1.645-1.533L17.197 5.31c-.17-.436-.59-.723-1.056-.723H2.323c-.29 0-.402.374-.162.534l13.58 9.1c.175.118.38.18.59.18h.486s.52.32 1.288.84c.77.52 1.48.85 1.818 1.845.404 1.19-1.818 4.63-2.828 5.034-1.818-.24-2.313-.077-3.393-.05-.537-.284-1.017-.547-1.228-.69-.19-.125-.32-.272-.41-.414-.288-.457-.668-.852-1.147-1.11L4.07 16.18c-.27-.145-.605-.048-.755.22l-.377.685c-.227.405-.216.9.02 1.295l3.618 6.038C3.342 26.674 1.156 30.35.95 34.528c-.372 7.538 5.644 13.79 13.088 13.79 5.6 0 10.39-3.538 12.262-8.498l2.05 1.933c.182.172.422.267.673.267h7.69c4.85 0 7.677.607 9.09.607H59.12c.475 0 .764-.263.794-1.042.03-.78.232-3.612.747-4.966.407 6.26 5.516 11.28 11.773 11.573 7.1.332 12.98-5.356 12.98-12.395 0-4.486-2.39-8.424-5.96-10.605 1.413.423 2.26.793 2.706 1.018zM106.49 40.867l.263 5.03c.023.413.286.62.8.62.505 0 .745-.207.722-.62l-.412-6.004c-.046-.62-.24-.94-.995-.94-.71 0-1.007.264-1.27.963l-1.464 3.77-1.465-3.77c-.275-.722-.63-.963-1.305-.963-.778 0-.972.32-1.007.94l-.423 6.004c-.023.413.206.62.698.62.48 0 .732-.184.755-.62l.275-5.03 1.52 3.988c.16.424.402.64.893.64.492 0 .733-.216.893-.64l1.52-3.988zm3.128 1.868c0-2.372 1.44-3.862 3.65-3.862 2.218 0 3.648 1.49 3.648 3.862s-1.43 3.86-3.65 3.86c-2.207 0-3.648-1.488-3.648-3.86zm1.6 0c0 1.58.825 2.51 2.05 2.51 1.234 0 2.058-.93 2.058-2.51 0-1.582-.824-2.51-2.06-2.51-1.223 0-2.047.928-2.047 2.51zm10.13-2.338h1.578c.412 0 .618-.23.618-.7 0-.457-.206-.686-.618-.686h-4.713c-.412 0-.618.23-.618.7 0 .458.206.687.618.687h1.58v5.5c0 .413.25.62.777.62.526 0 .778-.207.778-.62v-5.5zm2.852 2.338c0-2.372 1.442-3.862 3.65-3.862 2.22 0 3.65 1.49 3.65 3.862s-1.43 3.86-3.65 3.86c-2.208 0-3.65-1.488-3.65-3.86zm1.602 0c0 1.58.824 2.51 2.048 2.51 1.235 0 2.06-.93 2.06-2.51 0-1.582-.825-2.51-2.06-2.51-1.224 0-2.048.928-2.048 2.51zm12.176 2.452c.366.516.504.7.504.917 0 .263-.183.412-.72.412-.665 0-.848-.218-1.156-.687l-1.236-1.846c-.16.01-.31.023-.47.023-.17 0-.308-.012-.388-.023v1.913c0 .413-.24.62-.744.62-.503 0-.755-.207-.755-.62V40.1c0-.413.012-.837.664-1.02.332-.092.927-.15 1.407-.15 1.933 0 3.1.883 3.1 2.44 0 1.02-.492 1.8-1.35 2.236l1.144 1.58zm-3.49-2.487c.138.023.3.035.46.035 1.074 0 1.658-.47 1.658-1.26 0-.803-.584-1.227-1.545-1.227-.193 0-.388.023-.57.057V42.7zm6.515-.01c0-1.674.892-2.43 2.002-2.43.423 0 .835.103 1.144.297.227.138.376.264.548.264.354 0 .698-.423.698-.755 0-.252-.23-.516-.595-.722-.525-.298-1.143-.458-1.853-.458-2.036 0-3.546 1.386-3.546 3.827 0 2.44 1.523 3.873 3.56 3.873.708 0 1.35-.172 1.84-.47.367-.218.596-.458.596-.733 0-.32-.332-.734-.664-.734-.17 0-.32.126-.56.264-.332.206-.687.298-1.122.298-1.144 0-2.047-.825-2.047-2.52zm8.492-.207l-1.567-2.945c-.217-.424-.47-.585-1.03-.585-.55 0-.743.16-.743.4 0 .22.16.437.297.7l2.243 3.942v1.902c0 .413.25.62.777.62s.778-.207.778-.62v-1.913l2.288-3.977c.126-.217.275-.435.275-.653 0-.24-.183-.4-.72-.4-.62 0-.802.206-1.008.584l-1.59 2.945zm5.416.206c0-1.674.893-2.43 2.003-2.43.423 0 .835.103 1.144.297.228.138.377.264.55.264.353 0 .697-.423.697-.755 0-.252-.23-.516-.595-.722-.528-.298-1.145-.458-1.855-.458-2.036 0-3.546 1.386-3.546 3.827 0 2.44 1.52 3.873 3.557 3.873.71 0 1.35-.172 1.842-.47.365-.218.594-.458.594-.733 0-.32-.332-.734-.664-.734-.172 0-.32.126-.56.264-.332.206-.687.298-1.122.298-1.144 0-2.047-.825-2.047-2.52zm7.315 2.382v-5.5c0-.412-.252-.62-.778-.62s-.778.208-.778.62v6.108c0 .538.24.78.777.78h3.043c.412 0 .618-.23.618-.7 0-.46-.206-.688-.618-.688h-2.265zm5.747-5.5c0-.412-.252-.62-.778-.62s-.778.208-.778.62v6.325c0 .413.252.62.778.62s.778-.207.778-.62v-6.325zm4.992 4.847c0 .492-.458.813-1.11.813-.515 0-.87-.207-1.235-.424-.23-.14-.356-.22-.516-.22-.332 0-.664.436-.664.792 0 .24.15.435.435.63.584.4 1.236.573 1.968.573 1.52 0 2.654-.837 2.654-2.246 0-2.442-3.444-2.224-3.444-3.38 0-.403.367-.723 1.007-.723.423 0 .767.137 1.144.332.24.125.355.194.48.194.355 0 .653-.447.653-.79 0-.242-.126-.402-.424-.597-.48-.31-1.19-.492-1.84-.492-1.5 0-2.552.86-2.552 2.154 0 2.336 3.444 2.06 3.444 3.38zm6.147-4.023h1.58c.412 0 .618-.23.618-.7 0-.457-.206-.686-.618-.686h-4.713c-.412 0-.618.23-.618.7 0 .458.205.687.617.687h1.58v5.5c0 .413.25.62.776.62.527 0 .778-.207.778-.62v-5.5zm6.572 4.022c0 .492-.457.813-1.11.813-.514 0-.87-.207-1.235-.424-.23-.14-.355-.22-.515-.22-.332 0-.663.436-.663.792 0 .24.147.435.433.63.584.4 1.236.573 1.968.573 1.523 0 2.655-.837 2.655-2.246 0-2.442-3.443-2.224-3.443-3.38 0-.403.366-.723 1.006-.723.424 0 .767.137 1.144.332.24.125.355.194.48.194.355 0 .653-.447.653-.79 0-.242-.126-.402-.423-.597-.48-.31-1.19-.492-1.842-.492-1.5 0-2.55.86-2.55 2.154 0 2.336 3.442 2.06 3.442 3.38zM110.124 31.15c.123.336.194.583.194.794 0 .388-.282.67-1.127.67-.79 0-1.143-.23-1.336-.83l-.616-1.832h-4.312l-.616 1.833c-.176.547-.493.83-1.303.83-.792 0-1.073-.283-1.073-.67 0-.212.07-.46.193-.794l3.29-8.92c.336-.9.635-1.25 1.71-1.25 1.09 0 1.407.37 1.74 1.25l3.257 8.92zm-6.512-3.208h2.94l-1.48-4.336-1.46 4.336zm18.066-1.18c0 3.72-2.323 5.887-6.3 5.887-.705 0-1.567-.07-2.166-.23-1.003-.282-1.02-.934-1.02-1.57v-8.108c0-.635.017-1.287 1.02-1.57.51-.14 1.46-.228 2.235-.228 4.013 0 6.23 2.168 6.23 5.817zm-7.093 3.736c.317.053.634.07.933.07 2.43 0 3.696-1.427 3.696-3.754 0-2.38-1.303-3.79-3.696-3.79-.3 0-.616.017-.933.07v7.404zm13.402-.705l-2.728-7.986c-.177-.546-.476-.828-1.374-.828-.862 0-1.144.28-1.144.67 0 .21.07.457.194.792l3.31 9.06c.28.777.685 1.112 1.67 1.112 1.004 0 1.39-.335 1.673-1.11l3.343-9.062c.123-.335.193-.582.193-.793 0-.39-.28-.67-1.09-.67-.863 0-1.163.28-1.34.827l-2.71 7.986zm15.672 1.358c.122.336.193.583.193.794 0 .388-.282.67-1.127.67-.792 0-1.144-.23-1.337-.83l-.617-1.832h-4.312l-.615 1.833c-.176.547-.493.83-1.303.83-.792 0-1.073-.283-1.073-.67 0-.212.07-.46.192-.794l3.292-8.92c.334-.9.633-1.25 1.707-1.25 1.092 0 1.41.37 1.743 1.25l3.256 8.92zm-6.513-3.208h2.94l-1.48-4.336-1.46 4.336zm10.78-3.878l4.417 7.457c.423.74.88 1.094 1.796 1.094.968 0 1.46-.423 1.46-1.287V21.93c0-.634-.37-.95-1.108-.95-.74 0-1.11.316-1.11.95v7.44l-4.206-7.333c-.37-.653-.88-1.058-1.9-1.058s-1.55.404-1.55 1.286v9.396c0 .635.37.952 1.11.952.74 0 1.09-.317 1.09-.952v-7.598zm12.275 2.662c0-2.574 1.373-3.737 3.08-3.737.65 0 1.285.157 1.76.457.352.21.58.405.845.405.546 0 1.074-.652 1.074-1.163 0-.39-.35-.794-.915-1.112-.81-.458-1.76-.705-2.85-.705-3.134 0-5.457 2.133-5.457 5.888 0 3.756 2.34 5.96 5.474 5.96 1.09 0 2.077-.265 2.833-.723.564-.335.916-.705.916-1.128 0-.495-.51-1.13-1.02-1.13-.264 0-.493.194-.863.406-.51.317-1.056.458-1.724.458-1.76 0-3.15-1.27-3.15-3.878zm10.956-1.128v-2.45h3.907c.633 0 .95-.336.95-1.04 0-.706-.317-1.04-.95-1.04h-4.98c-.828 0-1.198.37-1.198 1.198v9.06c0 .83.37 1.2 1.197 1.2h5.086c.634 0 .95-.335.95-1.04 0-.705-.316-1.04-.95-1.04h-4.012v-2.768h3.185c.634 0 .95-.335.95-1.04 0-.705-.316-1.04-.95-1.04h-3.185zm16.394 1.163c0 3.72-2.324 5.89-6.3 5.89-.705 0-1.568-.07-2.166-.23-1.003-.282-1.02-.934-1.02-1.57v-8.108c0-.635.017-1.287 1.02-1.57.51-.14 1.46-.228 2.235-.228 4.014 0 6.232 2.168 6.232 5.817zM180.46 30.5c.316.053.632.07.932.07 2.428 0 3.696-1.427 3.696-3.754 0-2.38-1.303-3.79-3.696-3.79-.3 0-.616.017-.933.07v7.404zM107.354 12.405c0 .76-.704 1.252-1.707 1.252-.792 0-1.337-.317-1.9-.652-.353-.212-.546-.335-.793-.335-.51 0-1.02.67-1.02 1.216 0 .37.228.67.668.97.898.617 1.9.88 3.028.88 2.34 0 4.083-1.286 4.083-3.454 0-3.755-5.298-3.42-5.298-5.2 0-.617.563-1.11 1.55-1.11.65 0 1.178.21 1.76.51.37.194.545.3.738.3.546 0 1.003-.688 1.003-1.217 0-.37-.193-.617-.65-.916-.74-.477-1.83-.76-2.834-.76-2.306 0-3.925 1.323-3.925 3.315 0 3.596 5.297 3.173 5.297 5.2zm3.916-2.59c0-3.65 2.217-5.942 5.614-5.942 3.415 0 5.615 2.292 5.615 5.94 0 3.65-2.2 5.942-5.616 5.942-3.397 0-5.614-2.292-5.614-5.94zm2.464 0c0 2.432 1.267 3.86 3.15 3.86 1.9 0 3.168-1.428 3.168-3.86 0-2.434-1.267-3.862-3.168-3.862-1.883 0-3.15 1.428-3.15 3.86zm20.74-2.875l.406 7.74c.035.634.44.952 1.232.952.774 0 1.144-.318 1.11-.952l-.635-9.238c-.07-.952-.37-1.446-1.53-1.446-1.092 0-1.55.406-1.955 1.48l-2.253 5.8-2.253-5.8c-.423-1.11-.968-1.48-2.007-1.48-1.197 0-1.496.494-1.55 1.446l-.65 9.238c-.035.634.317.952 1.074.952.74 0 1.126-.282 1.16-.952l.424-7.74 2.34 6.135c.247.653.617.988 1.373.988.758 0 1.128-.335 1.374-.988l2.34-6.135zm7.42 1.675v-2.45h3.906c.634 0 .95-.335.95-1.04 0-.705-.316-1.04-.95-1.04h-4.98c-.828 0-1.198.37-1.198 1.198v9.062c0 .828.37 1.198 1.197 1.198h5.086c.633 0 .95-.334.95-1.04 0-.705-.317-1.04-.95-1.04h-4.013v-2.768h3.185c.634 0 .95-.334.95-1.04 0-.705-.316-1.04-.95-1.04h-3.185zm14.545 4.972c.562.793.773 1.075.773 1.41 0 .405-.28.635-1.11.635-1.02 0-1.3-.335-1.776-1.058l-1.9-2.838c-.247.017-.476.035-.723.035-.264 0-.475-.017-.598-.034v2.944c0 .634-.37.952-1.144.952-.774 0-1.162-.318-1.162-.952V5.76c0-.635.018-1.288 1.02-1.57.512-.14 1.427-.23 2.166-.23 2.974 0 4.77 1.36 4.77 3.756 0 1.57-.757 2.768-2.077 3.438l1.76 2.433zm-5.37-3.826c.212.036.458.054.705.054 1.654 0 2.552-.723 2.552-1.94 0-1.233-.898-1.885-2.376-1.885-.298 0-.598.034-.88.087V9.76zm12.963 2.645c0 .76-.704 1.252-1.708 1.252-.792 0-1.337-.317-1.9-.652-.352-.212-.546-.335-.792-.335-.51 0-1.02.67-1.02 1.216 0 .37.228.67.668.97.898.617 1.9.88 3.028.88 2.34 0 4.083-1.286 4.083-3.454 0-3.755-5.297-3.42-5.297-5.2 0-.617.564-1.11 1.55-1.11.65 0 1.178.21 1.76.51.37.194.545.3.738.3.547 0 1.005-.688 1.005-1.217 0-.37-.194-.617-.652-.916-.74-.477-1.83-.76-2.833-.76-2.306 0-3.925 1.323-3.925 3.315 0 3.596 5.298 3.173 5.298 5.2zm6.678-3.79v-2.45h3.908c.634 0 .95-.335.95-1.04 0-.705-.316-1.04-.95-1.04h-4.98c-.828 0-1.197.37-1.197 1.198v9.062c0 .828.37 1.198 1.198 1.198h5.086c.634 0 .95-.334.95-1.04 0-.705-.316-1.04-.95-1.04h-4.013v-2.768h3.187c.633 0 .95-.334.95-1.04 0-.705-.317-1.04-.95-1.04h-3.186zm11.96-2.397h2.43c.632 0 .95-.353.95-1.076 0-.705-.318-1.057-.95-1.057h-7.252c-.634 0-.95.352-.95 1.075 0 .705.316 1.058.95 1.058h2.428v8.462c0 .634.388.952 1.197.952.81 0 1.197-.318 1.197-.952V6.218z"/>
  </g>
</svg>
