<svg xmlns="http://www.w3.org/2000/svg" viewBox="0 0 12 11">
  <path fill="inherit" d="M11.72 1.94c-.4.18-.86.3-1.33.36.47-.3.84-.74 1-1.28-.44.26-.94.46-1.46.56C9.5 1.13 8.9.84 8.24.84 6.94.84 5.9 1.9 5.9 3.17c0 .18.03.36.07.53-1.93-.1-3.64-1.02-4.8-2.43-.2.34-.3.74-.3 1.17 0 .8.4 1.52 1.03 1.94-.38-.02-.74-.12-1.05-.3v.03c0 1.14.8 2.08 1.86 2.3-.2.05-.4.08-.6.08-.15 0-.3-.02-.44-.05.3.93 1.15 1.6 2.17 1.62-.8.62-1.8 1-2.9 1C.77 9.04.58 9.02.4 9c1.02.67 2.24 1.06 3.55 1.06 4.28 0 6.62-3.55 6.62-6.62v-.3c.45-.33.84-.74 1.15-1.2"/>
</svg>
